# 3ds Max Wavefront OBJ Exporter v0.97b - (c)2007 guruware
# File Created: 30.07.2016 22:00:57

mtllib shelve_03.mtl

#
# object shelve_03
#

v  -0.7153 0.0014 1.0810
v  -0.7153 0.0014 -1.0810
v  0.7153 0.0014 -1.0810
v  0.7153 0.0014 1.0810
v  -0.7153 5.9692 1.1276
v  -0.7153 0.0477 1.1276
v  0.7153 0.0477 1.1276
v  0.7153 5.9692 1.1276
v  -0.7153 6.0155 -1.0810
v  -0.7153 6.0155 1.0810
v  0.7153 6.0155 1.0810
v  0.7153 6.0155 -1.0810
v  -0.7153 0.0477 -1.1276
v  -0.7153 5.9692 -1.1276
v  0.7153 5.9692 -1.1276
v  0.7153 0.0477 -1.1276
v  0.7385 5.7256 -0.8370
v  0.7385 0.2913 -0.8370
v  0.7385 0.0642 -1.1079
v  0.7385 5.9526 -1.1079
v  0.7385 5.7786 0.7983
v  0.7385 5.7786 -0.7983
v  0.7385 5.9923 -1.0533
v  0.7385 5.9923 1.0533
v  0.7385 0.2913 0.8370
v  0.7385 5.7256 0.8370
v  0.7385 5.9526 1.1079
v  0.7385 0.0642 1.1079
v  0.7385 0.2383 -0.7983
v  0.7385 0.2383 0.7983
v  0.7385 0.0246 1.0533
v  0.7385 0.0246 -1.0533
v  -0.7385 0.2383 0.7983
v  -0.7385 0.2383 -0.7983
v  -0.7385 0.0246 -1.0533
v  -0.7385 0.0246 1.0533
v  -0.7385 5.7256 0.8370
v  -0.7385 0.2913 0.8370
v  -0.7385 0.0642 1.1079
v  -0.7385 5.9526 1.1079
v  -0.7385 5.7786 -0.7983
v  -0.7385 5.7786 0.7983
v  -0.7385 5.9923 1.0533
v  -0.7385 5.9923 -1.0533
v  -0.7385 0.2913 -0.8370
v  -0.7385 5.7256 -0.8370
v  -0.7385 5.9526 -1.1079
v  -0.7385 0.0642 -1.1079
v  -0.7153 5.7090 -0.8173
v  -0.7153 0.3078 -0.8173
v  0.7153 0.3078 -0.8173
v  0.7153 5.7090 -0.8173
v  -0.7153 5.7554 0.7706
v  -0.7153 5.7554 -0.7706
v  0.7153 5.7554 -0.7706
v  0.7153 5.7554 0.7706
v  -0.7153 0.3078 0.8173
v  -0.7153 5.7090 0.8173
v  0.7153 5.7090 0.8173
v  0.7153 0.3078 0.8173
v  -0.7153 0.2615 -0.7706
v  -0.7153 0.2615 0.7706
v  0.7153 0.2615 0.7706
v  0.7153 0.2615 -0.7706
v  -0.7153 4.0874 -0.8063
v  -0.7153 4.0874 0.8143
v  0.7153 4.0874 0.8143
v  0.7153 4.0874 -0.8063
v  0.7385 3.7321 0.8080
v  0.7385 3.7321 -0.8071
v  0.7385 4.0641 -0.8064
v  0.7385 4.0641 0.8138
v  -0.7385 3.7321 -0.8071
v  -0.7385 3.7321 0.8080
v  -0.7385 4.0641 0.8138
v  -0.7385 4.0641 -0.8064
v  -0.7153 3.7089 0.8076
v  -0.7153 3.7089 -0.8072
v  0.7153 3.7089 -0.8072
v  0.7153 3.7089 0.8076
v  -0.7153 2.2274 -0.8063
v  -0.7153 2.2274 0.8143
v  0.7153 2.2274 0.8143
v  0.7153 2.2274 -0.8063
v  0.7385 1.8721 0.8080
v  0.7385 1.8721 -0.8071
v  0.7385 2.2042 -0.8064
v  0.7385 2.2042 0.8138
v  -0.7385 1.8721 -0.8071
v  -0.7385 1.8721 0.8080
v  -0.7385 2.2042 0.8138
v  -0.7385 2.2042 -0.8064
v  -0.7153 1.8489 0.8076
v  -0.7153 1.8489 -0.8072
v  0.7153 1.8489 -0.8072
v  0.7153 1.8489 0.8076
v  -0.7153 0.0014 1.1276
v  0.7153 0.0014 1.1276
v  0.7153 0.0014 -1.1276
v  -0.7153 0.0014 -1.1276
v  -0.7153 6.0155 1.1276
v  0.7153 6.0155 1.1276
v  -0.7153 6.0155 -1.1276
v  0.7153 6.0155 -1.1276
v  0.7385 5.7750 -0.8406
v  0.7385 5.9959 -1.1043
v  0.7385 0.2419 -0.8406
v  0.7385 0.0210 -1.1043
v  0.7385 5.7750 0.8406
v  0.7385 5.9959 1.1043
v  0.7385 0.2419 0.8406
v  0.7385 0.0210 1.1043
v  -0.7385 0.2419 0.8406
v  -0.7385 0.0210 1.1043
v  -0.7385 0.2419 -0.8406
v  -0.7385 0.0210 -1.1043
v  -0.7385 5.7750 0.8406
v  -0.7385 5.9959 1.1043
v  -0.7385 5.7750 -0.8406
v  -0.7385 5.9959 -1.1043
v  -0.7153 5.7554 -0.8173
v  0.7153 5.7554 -0.8173
v  0.7153 0.2615 -0.8173
v  -0.7153 0.2615 -0.8173
v  -0.7153 5.7554 0.8173
v  0.7153 5.7554 0.8173
v  -0.7153 0.2615 0.8173
v  0.7153 0.2615 0.8173
v  -0.7385 0.0014 -1.0810
v  -0.7385 0.0014 1.0810
v  0.7385 0.0014 1.0810
v  0.7385 0.0014 -1.0810
v  -0.7385 0.0477 1.1276
v  -0.7385 5.9692 1.1276
v  0.7385 5.9692 1.1276
v  0.7385 0.0477 1.1276
v  -0.7385 6.0155 1.0810
v  -0.7385 6.0155 -1.0810
v  0.7385 6.0155 -1.0810
v  0.7385 6.0155 1.0810
v  -0.7385 5.9692 -1.1276
v  -0.7385 0.0477 -1.1276
v  0.7385 0.0477 -1.1276
v  0.7385 5.9692 -1.1276
v  0.7385 0.3078 -0.8173
v  0.7385 5.7090 -0.8173
v  0.7385 5.7554 -0.7706
v  0.7385 5.7554 0.7706
v  0.7385 5.7090 0.8173
v  0.7385 0.3078 0.8173
v  0.7385 0.2615 0.7706
v  0.7385 0.2615 -0.7706
v  -0.7385 0.2615 -0.7706
v  -0.7385 0.2615 0.7706
v  -0.7385 0.3078 0.8173
v  -0.7385 5.7090 0.8173
v  -0.7385 5.7554 0.7706
v  -0.7385 5.7554 -0.7706
v  -0.7385 5.7090 -0.8173
v  -0.7385 0.3078 -0.8173
v  -0.7385 0.0014 1.1276
v  0.7385 0.0014 1.1276
v  0.7385 0.0014 -1.1276
v  -0.7385 0.0014 -1.1276
v  -0.7385 6.0155 1.1276
v  0.7385 6.0155 1.1276
v  -0.7385 6.0155 -1.1276
v  0.7385 6.0155 -1.1276
v  0.7385 5.7554 -0.8173
v  0.7385 0.2615 -0.8173
v  0.7385 5.7554 0.8173
v  0.7385 0.2615 0.8173
v  -0.7385 0.2615 0.8173
v  -0.7385 0.2615 -0.8173
v  -0.7385 5.7554 0.8173
v  -0.7385 5.7554 -0.8173
v  -0.7385 4.0874 0.8143
v  -0.7385 4.0874 -0.8063
v  0.7385 4.0874 -0.8063
v  0.7385 4.0874 0.8143
v  0.7385 3.7089 -0.8072
v  0.7385 3.7089 0.8076
v  -0.7385 3.7089 0.8076
v  -0.7385 3.7089 -0.8072
v  -0.7385 2.2274 0.8143
v  -0.7385 2.2274 -0.8063
v  0.7385 2.2274 -0.8063
v  0.7385 2.2274 0.8143
v  0.7385 1.8489 -0.8072
v  0.7385 1.8489 0.8076
v  -0.7385 1.8489 0.8076
v  -0.7385 1.8489 -0.8072
# 192 vertices

vn 0.0000 -1.0000 0.0000
vn -0.0000 0.0000 1.0000
vn -0.0000 1.0000 -0.0000
vn 0.0000 0.0000 -1.0000
vn 1.0000 0.0000 0.0000
vn 1.0000 -0.0000 0.0000
vn -1.0000 -0.0000 -0.0000
vn -0.0000 -1.0000 -0.0000
vn -1.0000 0.0000 -0.0000
vn -0.0000 -0.7071 0.7071
vn 0.0000 -0.7071 -0.7071
vn -0.0000 0.7071 0.7071
vn 0.0000 0.7071 -0.7071
vn -0.7071 -0.7071 -0.0000
vn 0.7071 -0.7071 0.0000
vn -0.7071 -0.0000 0.7071
vn 0.7071 0.0000 0.7071
vn -0.7071 0.7071 -0.0000
vn 0.7071 0.7071 0.0000
vn -0.7071 -0.0000 -0.7071
vn 0.7071 0.0000 -0.7071
vn -0.5774 -0.5774 0.5774
vn 0.5774 -0.5774 0.5774
vn 0.5774 -0.5774 -0.5774
vn -0.5774 -0.5774 -0.5774
vn -0.5774 0.5774 0.5774
vn 0.5774 0.5774 0.5774
vn -0.5774 0.5774 -0.5774
vn 0.5774 0.5774 -0.5774
vn 0.9045 -0.3015 0.3015
vn 0.9045 0.3015 0.3015
vn 0.9045 -0.3015 -0.3015
vn 0.9045 0.3015 -0.3015
vn -0.9045 0.3015 -0.3015
vn -0.9045 0.3015 0.3015
vn -0.9045 -0.3015 -0.3015
vn -0.9045 -0.3015 0.3015
vn -0.7024 0.7118 -0.0000
vn -0.7077 0.7065 -0.0000
vn 0.7077 0.7065 0.0000
vn 0.7024 0.7118 0.0000
vn 0.7065 -0.7077 0.0000
vn 0.7117 -0.7025 0.0000
vn -0.7117 -0.7025 -0.0000
vn -0.7065 -0.7077 -0.0000
# 45 vertex normals

vt 0.0174 0.5055 0.0000
vt 0.2422 0.5055 0.0000
vt 0.2422 0.6319 0.0000
vt 0.0174 0.6319 0.0000
vt 0.5347 0.1371 0.0000
vt 0.0117 0.1371 0.0000
vt 0.0117 0.0107 0.0000
vt 0.5347 0.0107 0.0000
vt 0.0302 0.6618 0.0000
vt 0.2549 0.6618 0.0000
vt 0.2549 0.7882 0.0000
vt 0.0302 0.7882 0.0000
vt 0.5347 0.2741 0.0000
vt 0.0117 0.2741 0.0000
vt 0.0117 0.1478 0.0000
vt 0.5347 0.1478 0.0000
vt 0.7045 0.7925 0.0000
vt 0.7045 0.3126 0.0000
vt 0.7326 0.2926 0.0000
vt 0.7326 0.8126 0.0000
vt 0.5345 0.7972 0.0000
vt 0.7004 0.7972 0.0000
vt 0.7269 0.8161 0.0000
vt 0.5080 0.8161 0.0000
vt 0.5305 0.3126 0.0000
vt 0.5305 0.7925 0.0000
vt 0.5023 0.8126 0.0000
vt 0.5023 0.2926 0.0000
vt 0.7004 0.3079 0.0000
vt 0.5345 0.3079 0.0000
vt 0.5080 0.2891 0.0000
vt 0.7269 0.2891 0.0000
vt 0.7945 0.7972 0.0000
vt 0.9605 0.7972 0.0000
vt 0.9870 0.8161 0.0000
vt 0.7680 0.8161 0.0000
vt 0.7905 0.3126 0.0000
vt 0.7905 0.7925 0.0000
vt 0.7624 0.8126 0.0000
vt 0.7624 0.2926 0.0000
vt 0.9605 0.3079 0.0000
vt 0.7945 0.3079 0.0000
vt 0.7680 0.2891 0.0000
vt 0.9870 0.2891 0.0000
vt 0.9645 0.7925 0.0000
vt 0.9645 0.3126 0.0000
vt 0.9927 0.2926 0.0000
vt 0.9927 0.8126 0.0000
vt 0.4831 0.9626 0.0000
vt 0.0061 0.9626 0.0000
vt 0.0061 0.8363 0.0000
vt 0.4831 0.8363 0.0000
vt 0.4652 0.6166 0.0000
vt 0.3049 0.6166 0.0000
vt 0.3049 0.4903 0.0000
vt 0.4652 0.4903 0.0000
vt 0.9939 0.9626 0.0000
vt 0.5169 0.9626 0.0000
vt 0.5169 0.8363 0.0000
vt 0.9939 0.8363 0.0000
vt 0.2213 0.4518 0.0000
vt 0.0610 0.4518 0.0000
vt 0.0610 0.3255 0.0000
vt 0.2213 0.3255 0.0000
vt 0.8015 0.1954 0.0000
vt 0.6331 0.1954 0.0000
vt 0.6331 0.0690 0.0000
vt 0.8015 0.0690 0.0000
vt 0.6337 0.0356 0.0000
vt 0.8016 0.0356 0.0000
vt 0.8015 0.0649 0.0000
vt 0.6331 0.0649 0.0000
vt 0.8016 0.2288 0.0000
vt 0.6337 0.2288 0.0000
vt 0.6331 0.1995 0.0000
vt 0.8015 0.1995 0.0000
vt 0.4196 0.4518 0.0000
vt 0.2517 0.4518 0.0000
vt 0.2517 0.3255 0.0000
vt 0.4196 0.3255 0.0000
vt 0.4395 0.7881 0.0000
vt 0.2711 0.7881 0.0000
vt 0.2711 0.6617 0.0000
vt 0.4395 0.6617 0.0000
vt 0.9794 0.0645 0.0000
vt 0.8115 0.0645 0.0000
vt 0.8116 0.0352 0.0000
vt 0.9800 0.0352 0.0000
vt 0.8115 0.1991 0.0000
vt 0.9794 0.1991 0.0000
vt 0.9800 0.2284 0.0000
vt 0.8116 0.2284 0.0000
vt 0.9794 0.1950 0.0000
vt 0.8115 0.1950 0.0000
vt 0.8115 0.0686 0.0000
vt 0.9794 0.0686 0.0000
vt 0.0126 0.5055 0.0000
vt 0.0126 0.6319 0.0000
vt 0.2470 0.6319 0.0000
vt 0.2470 0.5055 0.0000
vt 0.5388 0.1371 0.0000
vt 0.5388 0.0107 0.0000
vt 0.0077 0.0107 0.0000
vt 0.0077 0.1371 0.0000
vt 0.0253 0.6618 0.0000
vt 0.0253 0.7882 0.0000
vt 0.2598 0.7882 0.0000
vt 0.2598 0.6618 0.0000
vt 0.5388 0.2741 0.0000
vt 0.5388 0.1478 0.0000
vt 0.0077 0.1478 0.0000
vt 0.0077 0.2741 0.0000
vt 0.7048 0.7969 0.0000
vt 0.7322 0.8164 0.0000
vt 0.7048 0.3083 0.0000
vt 0.7322 0.2887 0.0000
vt 0.5301 0.7969 0.0000
vt 0.5027 0.8164 0.0000
vt 0.5301 0.3083 0.0000
vt 0.5027 0.2887 0.0000
vt 0.7901 0.7969 0.0000
vt 0.7627 0.8164 0.0000
vt 0.9649 0.7969 0.0000
vt 0.9923 0.8164 0.0000
vt 0.7901 0.3083 0.0000
vt 0.7627 0.2887 0.0000
vt 0.9649 0.3083 0.0000
vt 0.9923 0.2887 0.0000
vt 0.4872 0.9626 0.0000
vt 0.4872 0.8363 0.0000
vt 0.0020 0.8363 0.0000
vt 0.0020 0.9626 0.0000
vt 0.4700 0.6166 0.0000
vt 0.4700 0.4903 0.0000
vt 0.3001 0.4903 0.0000
vt 0.3001 0.6166 0.0000
vt 0.9980 0.9626 0.0000
vt 0.9980 0.8363 0.0000
vt 0.5128 0.8363 0.0000
vt 0.5128 0.9626 0.0000
vt 0.2261 0.4518 0.0000
vt 0.2261 0.3255 0.0000
vt 0.0562 0.3255 0.0000
vt 0.0562 0.4518 0.0000
vt 0.2422 0.5035 0.0000
vt 0.0174 0.5035 0.0000
vt 0.0174 0.6339 0.0000
vt 0.2422 0.6339 0.0000
vt 0.0117 0.1391 0.0000
vt 0.5347 0.1391 0.0000
vt 0.5347 0.0087 0.0000
vt 0.0117 0.0087 0.0000
vt 0.2549 0.6598 0.0000
vt 0.0302 0.6598 0.0000
vt 0.0302 0.7902 0.0000
vt 0.2549 0.7902 0.0000
vt 0.0117 0.2762 0.0000
vt 0.5347 0.2762 0.0000
vt 0.5347 0.1457 0.0000
vt 0.0117 0.1457 0.0000
vt 0.7024 0.3141 0.0000
vt 0.7024 0.7911 0.0000
vt 0.7347 0.8141 0.0000
vt 0.7347 0.2911 0.0000
vt 0.6976 0.7952 0.0000
vt 0.5374 0.7952 0.0000
vt 0.5051 0.8181 0.0000
vt 0.7298 0.8181 0.0000
vt 0.5325 0.7911 0.0000
vt 0.5325 0.3141 0.0000
vt 0.5002 0.2911 0.0000
vt 0.5002 0.8141 0.0000
vt 0.5374 0.3100 0.0000
vt 0.6976 0.3100 0.0000
vt 0.7298 0.2870 0.0000
vt 0.5051 0.2870 0.0000
vt 0.9576 0.7952 0.0000
vt 0.7974 0.7952 0.0000
vt 0.7651 0.8181 0.0000
vt 0.9899 0.8181 0.0000
vt 0.7926 0.7911 0.0000
vt 0.7926 0.3141 0.0000
vt 0.7603 0.2911 0.0000
vt 0.7603 0.8141 0.0000
vt 0.7974 0.3100 0.0000
vt 0.9576 0.3100 0.0000
vt 0.9899 0.2870 0.0000
vt 0.7651 0.2870 0.0000
vt 0.9625 0.3141 0.0000
vt 0.9625 0.7911 0.0000
vt 0.9947 0.8141 0.0000
vt 0.9947 0.2911 0.0000
vt 0.0061 0.9647 0.0000
vt 0.4831 0.9647 0.0000
vt 0.4831 0.8343 0.0000
vt 0.0061 0.8343 0.0000
vt 0.3049 0.6187 0.0000
vt 0.4652 0.6187 0.0000
vt 0.4652 0.4883 0.0000
vt 0.3049 0.4883 0.0000
vt 0.5169 0.9647 0.0000
vt 0.9939 0.9647 0.0000
vt 0.9939 0.8343 0.0000
vt 0.5169 0.8343 0.0000
vt 0.0610 0.4539 0.0000
vt 0.2213 0.4539 0.0000
vt 0.2213 0.3235 0.0000
vt 0.0610 0.3235 0.0000
vt 0.0126 0.5035 0.0000
vt 0.0126 0.6339 0.0000
vt 0.2470 0.6339 0.0000
vt 0.2470 0.5035 0.0000
vt 0.5388 0.1391 0.0000
vt 0.5388 0.0087 0.0000
vt 0.0077 0.0087 0.0000
vt 0.0077 0.1391 0.0000
vt 0.0253 0.6598 0.0000
vt 0.0253 0.7902 0.0000
vt 0.2598 0.7902 0.0000
vt 0.2598 0.6598 0.0000
vt 0.5388 0.2762 0.0000
vt 0.5388 0.1457 0.0000
vt 0.0077 0.1457 0.0000
vt 0.0077 0.2762 0.0000
vt 0.7024 0.7952 0.0000
vt 0.7347 0.8181 0.0000
vt 0.7347 0.2870 0.0000
vt 0.7024 0.3100 0.0000
vt 0.5325 0.7952 0.0000
vt 0.5002 0.8181 0.0000
vt 0.5325 0.3100 0.0000
vt 0.5002 0.2870 0.0000
vt 0.7926 0.7952 0.0000
vt 0.7603 0.8181 0.0000
vt 0.9947 0.8181 0.0000
vt 0.9625 0.7952 0.0000
vt 0.7926 0.3100 0.0000
vt 0.7603 0.2870 0.0000
vt 0.9625 0.3100 0.0000
vt 0.9947 0.2870 0.0000
vt 0.4872 0.9647 0.0000
vt 0.4872 0.8343 0.0000
vt 0.0020 0.8343 0.0000
vt 0.0020 0.9647 0.0000
vt 0.4700 0.6187 0.0000
vt 0.4700 0.4883 0.0000
vt 0.3001 0.4883 0.0000
vt 0.3001 0.6187 0.0000
vt 0.9980 0.9647 0.0000
vt 0.9980 0.8343 0.0000
vt 0.5128 0.8343 0.0000
vt 0.5128 0.9647 0.0000
vt 0.2261 0.4539 0.0000
vt 0.2261 0.3235 0.0000
vt 0.0562 0.3235 0.0000
vt 0.0562 0.4539 0.0000
vt 0.6331 0.1974 0.0000
vt 0.8015 0.1974 0.0000
vt 0.8015 0.0670 0.0000
vt 0.6331 0.0670 0.0000
vt 0.8016 0.0335 0.0000
vt 0.6338 0.0335 0.0000
vt 0.6338 0.2308 0.0000
vt 0.8016 0.2308 0.0000
vt 0.2517 0.4539 0.0000
vt 0.4196 0.4539 0.0000
vt 0.4196 0.3235 0.0000
vt 0.2517 0.3235 0.0000
vt 0.2711 0.7901 0.0000
vt 0.4395 0.7901 0.0000
vt 0.4395 0.6597 0.0000
vt 0.2711 0.6597 0.0000
vt 0.8115 0.0666 0.0000
vt 0.9794 0.0666 0.0000
vt 0.9800 0.0332 0.0000
vt 0.8116 0.0332 0.0000
vt 0.9794 0.1970 0.0000
vt 0.8115 0.1970 0.0000
vt 0.8116 0.2304 0.0000
vt 0.9800 0.2304 0.0000
# 280 texture coords

g shelve_03
usemtl 01___Default
s 1
f 1/1/1 2/2/1 3/3/1 4/4/1 
f 5/5/2 6/6/2 7/7/2 8/8/2 
f 9/9/3 10/10/3 11/11/3 12/12/3 
f 13/13/4 14/14/4 15/15/4 16/16/4 
f 17/17/5 18/18/5 19/19/5 20/20/5 
f 21/21/6 22/22/5 23/23/5 24/24/6 
f 25/25/5 26/26/5 27/27/5 28/28/5 
f 29/29/6 30/30/5 31/31/5 32/32/6 
f 33/33/7 34/34/7 35/35/7 36/36/7 
f 37/37/7 38/38/7 39/39/7 40/40/7 
f 41/41/7 42/42/7 43/43/7 44/44/7 
f 45/45/7 46/46/7 47/47/7 48/48/7 
f 49/49/2 50/50/2 51/51/2 52/52/2 
f 53/53/1 54/54/1 55/55/1 56/56/1 
f 57/57/4 58/58/4 59/59/4 60/60/4 
f 61/61/3 62/62/3 63/63/3 64/64/3 
f 65/65/3 66/66/3 67/67/3 68/68/3 
f 69/69/5 70/70/5 71/71/5 72/72/5 
f 73/73/7 74/74/7 75/75/7 76/76/7 
f 77/77/8 78/78/8 79/79/8 80/80/8 
f 81/81/3 82/82/3 83/83/3 84/84/3 
f 85/85/5 86/86/6 87/87/6 88/88/5 
f 89/89/7 90/90/9 91/91/9 92/92/7 
f 93/93/1 94/94/1 95/95/1 96/96/1 
f 97/97/10 1/1/1 4/4/1 98/98/10 
f 99/99/11 3/3/1 2/2/1 100/100/11 
f 101/101/12 5/5/2 8/8/2 102/102/12 
f 98/103/10 7/7/2 6/6/2 97/104/10 
f 103/105/13 9/9/3 12/12/3 104/106/13 
f 102/107/12 11/11/3 10/10/3 101/108/12 
f 100/109/11 13/13/4 16/16/4 99/110/11 
f 104/111/13 15/15/4 14/14/4 103/112/13 
f 105/113/5 17/17/5 20/20/5 106/114/5 
f 107/115/5 108/116/5 19/19/5 18/18/5 
f 109/117/5 21/21/6 24/24/6 110/118/5 
f 105/113/5 106/114/5 23/23/5 22/22/5 
f 111/119/5 25/25/5 28/28/5 112/120/5 
f 109/117/5 110/118/5 27/27/5 26/26/5 
f 107/115/5 29/29/6 32/32/6 108/116/5 
f 111/119/5 112/120/5 31/31/5 30/30/5 
f 113/121/7 33/33/7 36/36/7 114/122/7 
f 115/123/7 116/124/7 35/35/7 34/34/7 
f 117/125/7 37/37/7 40/40/7 118/126/7 
f 113/121/7 114/122/7 39/39/7 38/38/7 
f 119/127/7 41/41/7 44/44/7 120/128/7 
f 117/125/7 118/126/7 43/43/7 42/42/7 
f 115/123/7 45/45/7 48/48/7 116/124/7 
f 119/127/7 120/128/7 47/47/7 46/46/7 
f 121/129/10 49/49/2 52/52/2 122/130/10 
f 123/131/12 51/51/2 50/50/2 124/132/12 
f 125/133/11 53/53/1 56/56/1 126/134/11 
f 122/135/10 55/55/1 54/54/1 121/136/10 
f 127/137/13 57/57/4 60/60/4 128/138/13 
f 126/139/11 59/59/4 58/58/4 125/140/11 
f 124/141/12 61/61/3 64/64/3 123/142/12 
f 128/143/13 63/63/3 62/62/3 127/144/13 
f 129/145/14 2/2/1 1/1/1 130/146/14 
f 131/147/15 4/4/1 3/3/1 132/148/15 
f 133/149/16 6/6/2 5/5/2 134/150/16 
f 135/151/17 8/8/2 7/7/2 136/152/17 
f 137/153/18 10/10/3 9/9/3 138/154/18 
f 139/155/19 12/12/3 11/11/3 140/156/19 
f 141/157/20 14/14/4 13/13/4 142/158/20 
f 143/159/21 16/16/4 15/15/4 144/160/21 
f 145/161/17 18/18/5 17/17/5 146/162/17 
f 144/163/21 20/20/5 19/19/5 143/164/21 
f 147/165/15 22/22/5 21/21/6 148/166/15 
f 140/167/19 24/24/6 23/23/5 139/168/19 
f 149/169/21 26/26/5 25/25/5 150/170/21 
f 136/171/17 28/28/5 27/27/5 135/172/17 
f 151/173/19 30/30/5 29/29/6 152/174/19 
f 132/175/15 32/32/6 31/31/5 131/176/15 
f 153/177/18 34/34/7 33/33/7 154/178/18 
f 130/179/14 36/36/7 35/35/7 129/180/14 
f 155/181/20 38/38/7 37/37/7 156/182/20 
f 134/183/16 40/40/7 39/39/7 133/184/16 
f 157/185/14 42/42/7 41/41/7 158/186/14 
f 138/187/18 44/44/7 43/43/7 137/188/18 
f 159/189/16 46/46/7 45/45/7 160/190/16 
f 142/191/20 48/48/7 47/47/7 141/192/20 
f 160/193/16 50/50/2 49/49/2 159/194/16 
f 146/195/17 52/52/2 51/51/2 145/196/17 
f 158/197/14 54/54/1 53/53/1 157/198/14 
f 148/199/15 56/56/1 55/55/1 147/200/15 
f 156/201/20 58/58/4 57/57/4 155/202/20 
f 150/203/21 60/60/4 59/59/4 149/204/21 
f 154/205/18 62/62/3 61/61/3 153/206/18 
f 152/207/19 64/64/3 63/63/3 151/208/19 
f 130/146/14 1/1/1 97/97/10 161/209/22 
f 162/210/23 98/98/10 4/4/1 131/147/15 
f 132/148/15 3/3/1 99/99/11 163/211/24 
f 164/212/25 100/100/11 2/2/1 129/145/14 
f 134/150/16 5/5/2 101/101/12 165/213/26 
f 166/214/27 102/102/12 8/8/2 135/151/17 
f 136/152/17 7/7/2 98/103/10 162/215/23 
f 161/216/22 97/104/10 6/6/2 133/149/16 
f 138/154/18 9/9/3 103/105/13 167/217/28 
f 168/218/29 104/106/13 12/12/3 139/155/19 
f 140/156/19 11/11/3 102/107/12 166/219/27 
f 165/220/26 101/108/12 10/10/3 137/153/18 
f 142/158/20 13/13/4 100/109/11 164/221/25 
f 163/222/24 99/110/11 16/16/4 143/159/21 
f 144/160/21 15/15/4 104/111/13 168/223/29 
f 167/224/28 103/112/13 14/14/4 141/157/20 
f 146/162/17 17/17/5 105/113/5 169/225/30 
f 168/226/29 106/114/5 20/20/5 144/163/21 
f 143/164/21 19/19/5 108/116/5 163/227/24 
f 170/228/31 107/115/5 18/18/5 145/161/17 
f 148/166/15 21/21/6 109/117/5 171/229/32 
f 166/230/27 110/118/5 24/24/6 140/167/19 
f 139/168/19 23/23/5 106/114/5 168/226/29 
f 169/225/30 105/113/5 22/22/5 147/165/15 
f 150/170/21 25/25/5 111/119/5 172/231/33 
f 162/232/23 112/120/5 28/28/5 136/171/17 
f 135/172/17 27/27/5 110/118/5 166/230/27 
f 171/229/32 109/117/5 26/26/5 149/169/21 
f 152/174/19 29/29/6 107/115/5 170/228/31 
f 163/227/24 108/116/5 32/32/6 132/175/15 
f 131/176/15 31/31/5 112/120/5 162/232/23 
f 172/231/33 111/119/5 30/30/5 151/173/19 
f 154/178/18 33/33/7 113/121/7 173/233/34 
f 161/234/22 114/122/7 36/36/7 130/179/14 
f 129/180/14 35/35/7 116/124/7 164/235/25 
f 174/236/35 115/123/7 34/34/7 153/177/18 
f 156/182/20 37/37/7 117/125/7 175/237/36 
f 165/238/26 118/126/7 40/40/7 134/183/16 
f 133/184/16 39/39/7 114/122/7 161/234/22 
f 173/233/34 113/121/7 38/38/7 155/181/20 
f 158/186/14 41/41/7 119/127/7 176/239/37 
f 167/240/28 120/128/7 44/44/7 138/187/18 
f 137/188/18 43/43/7 118/126/7 165/238/26 
f 175/237/36 117/125/7 42/42/7 157/185/14 
f 160/190/16 45/45/7 115/123/7 174/236/35 
f 164/235/25 116/124/7 48/48/7 142/191/20 
f 141/192/20 47/47/7 120/128/7 167/240/28 
f 176/239/37 119/127/7 46/46/7 159/189/16 
f 159/194/16 49/49/2 121/129/10 176/241/37 
f 169/242/30 122/130/10 52/52/2 146/195/17 
f 145/196/17 51/51/2 123/131/12 170/243/31 
f 174/244/35 124/132/12 50/50/2 160/193/16 
f 157/198/14 53/53/1 125/133/11 175/245/36 
f 171/246/32 126/134/11 56/56/1 148/199/15 
f 147/200/15 55/55/1 122/135/10 169/247/30 
f 176/248/37 121/136/10 54/54/1 158/197/14 
f 155/202/20 57/57/4 127/137/13 173/249/34 
f 172/250/33 128/138/13 60/60/4 150/203/21 
f 149/204/21 59/59/4 126/139/11 171/251/32 
f 175/252/36 125/140/11 58/58/4 156/201/20 
f 153/206/18 61/61/3 124/141/12 174/253/35 
f 170/254/31 123/142/12 64/64/3 152/207/19 
f 151/208/19 63/63/3 128/143/13 172/255/33 
f 173/256/34 127/144/13 62/62/3 154/205/18 
f 177/257/38 66/66/3 65/65/3 178/258/39 
f 179/259/40 68/68/3 67/67/3 180/260/41 
f 181/261/42 70/70/5 69/69/5 182/262/43 
f 180/260/41 72/72/5 71/71/5 179/259/40 
f 183/263/44 74/74/7 73/73/7 184/264/45 
f 178/258/39 76/76/7 75/75/7 177/257/38 
f 184/265/45 78/78/8 77/77/8 183/266/44 
f 182/267/43 80/80/8 79/79/8 181/268/42 
f 185/269/38 82/82/3 81/81/3 186/270/39 
f 187/271/40 84/84/3 83/83/3 188/272/41 
f 189/273/42 86/86/6 85/85/5 190/274/43 
f 188/275/41 88/88/5 87/87/6 187/276/40 
f 191/277/44 90/90/9 89/89/7 192/278/45 
f 186/279/39 92/92/7 91/91/9 185/280/38 
f 192/278/45 94/94/1 93/93/1 191/277/44 
f 190/274/43 96/96/1 95/95/1 189/273/42 
# 168 polygons

